<mxfile host="65bd71144e">
    <diagram id="HIP3nbAZw_EuaXWnEj3U" name="Page-1">
        <mxGraphModel dx="846" dy="602" grid="1" gridSize="10" guides="1" tooltips="1" connect="1" arrows="1" fold="1" page="1" pageScale="1" pageWidth="850" pageHeight="1100" math="0" shadow="0">
            <root>
                <mxCell id="0"/>
                <mxCell id="1" parent="0"/>
                <mxCell id="7" value="http://ics2o.mths.ca" style="swimlane;whiteSpace=wrap;html=1;" parent="1" vertex="1">
                    <mxGeometry x="30" y="30" width="760" height="480" as="geometry"/>
                </mxCell>
                <mxCell id="8" value="&lt;font style=&quot;font-size: 48px;&quot;&gt;Multiplication&amp;nbsp;&lt;/font&gt;" style="rounded=1;whiteSpace=wrap;html=1;" vertex="1" parent="7">
                    <mxGeometry y="30" width="760" height="60" as="geometry"/>
                </mxCell>
                <mxCell id="9" value="&lt;font style=&quot;font-size: 24px;&quot;&gt;Enter your integers below:&lt;/font&gt;" style="text;html=1;align=center;verticalAlign=middle;resizable=0;points=[];autosize=1;strokeColor=none;fillColor=none;fontSize=48;" vertex="1" parent="7">
                    <mxGeometry x="230" y="120" width="300" height="70" as="geometry"/>
                </mxCell>
                <mxCell id="10" value="" style="line;strokeWidth=2;html=1;fontSize=24;" vertex="1" parent="7">
                    <mxGeometry x="275" y="250" width="160" height="10" as="geometry"/>
                </mxCell>
                <mxCell id="12" value="" style="line;strokeWidth=2;html=1;fontSize=12;" vertex="1" parent="7">
                    <mxGeometry x="285" y="320" width="160" height="10" as="geometry"/>
                </mxCell>
                <mxCell id="13" value="Integer..." style="text;html=1;align=center;verticalAlign=middle;resizable=0;points=[];autosize=1;strokeColor=none;fillColor=none;fontSize=12;" vertex="1" parent="7">
                    <mxGeometry x="275" y="300" width="70" height="30" as="geometry"/>
                </mxCell>
                <mxCell id="11" value="&lt;font style=&quot;font-size: 12px;&quot;&gt;Integer...&lt;/font&gt;" style="text;html=1;align=center;verticalAlign=middle;resizable=0;points=[];autosize=1;strokeColor=none;fillColor=none;fontSize=24;" vertex="1" parent="7">
                    <mxGeometry x="275" y="220" width="70" height="40" as="geometry"/>
                </mxCell>
                <mxCell id="16" value="Button" style="rounded=1;whiteSpace=wrap;html=1;fontSize=18;" vertex="1" parent="7">
                    <mxGeometry x="322.5" y="370" width="65" height="30" as="geometry"/>
                </mxCell>
                <mxCell id="14" value="&lt;font style=&quot;font-size: 48px;&quot;&gt;X&lt;/font&gt;" style="text;html=1;align=center;verticalAlign=middle;resizable=0;points=[];autosize=1;strokeColor=none;fillColor=none;fontSize=12;" vertex="1" parent="1">
                    <mxGeometry x="350" y="285" width="60" height="70" as="geometry"/>
                </mxCell>
            </root>
        </mxGraphModel>
    </diagram>
</mxfile>